# xmcd
#
# Track frame offsets:
#   150
#   16125
#   31569
#   44124
#   59848
#   75763
#   84799
#   98713
#   109237
#   117859
#   132039
#   145004
#   160077
#   171062
#   189994
#   204302
#   220561
#   230401
#   247320
#   264943
#   282440
#
# Disc length: 3946 seconds
#
# Revision: 0
# Processed by: cddbd v1.5.1PL0 Copyright (c) Steve Scherf et al.
# Submitted via: uFREEDB ActiveX Control 1.5
#
DISCID=0f0f6815
DTITLE=Gabriel Lener - O Fenomeno do Forró
DYEAR=2005
DGENRE=Country
TTITLE0=Coração
TTITLE1=Pica-Pau
TTITLE2=Revoar
TTITLE3=Vou Te Buscar
TTITLE4=Borogodó
TTITLE5=Chamego Dela
TTITLE6=Mexe Mexe
TTITLE7=Somos Loucos
TTITLE8=Me Dá Um Beijo
TTITLE9=Daniela
TTITLE10=Semancol
TTITLE11=É Chamego ou Chaveco
TTITLE12=Mauricinho
TTITLE13=Futricar
TTITLE14=Tiquin
TTITLE15=Bar do Tobas
TTITLE16=Chilepe
TTITLE17=Castigo
TTITLE18=Tô Ligando
TTITLE19=Principio do Fim
TTITLE20=Tremo Tremo
EXTD=
EXTT0=
EXTT1=
EXTT2=
EXTT3=
EXTT4=
EXTT5=
EXTT6=
EXTT7=
EXTT8=
EXTT9=
EXTT10=
EXTT11=
EXTT12=
EXTT13=
EXTT14=
EXTT15=
EXTT16=
EXTT17=
EXTT18=
EXTT19=
EXTT20=
PLAYORDER=
